<svg xmlns="http://www.w3.org/2000/svg" xmlns:xlink="http://www.w3.org/1999/xlink" id="Layer_1" x="0" y="0" enable-background="new 0 0 29.5 28.5" version="1.1" viewBox="0 0 29.5 28.5" xml:space="preserve"><style type="text/css">.st0{fill:#dc382d}</style><g><polygon points="15.9 13.5 20.5 16.1 25.7 9.5 24.5 8.5 20.2 14.2 15.4 11.6 11.3 17.1 9.1 15.4 8.2 16.6 11.6 19.2" class="st0"/><polygon points="25.4 21 24.4 22.2 26.3 23.9 4.5 23.9 4.5 3.3 6.2 5.3 7.3 4.2 3.7 .2 .1 4.2 1.2 5.3 3 3.3 3 23.9 1.7 23.9 1.7 25.4 3 25.4 3 26.7 4.5 26.7 4.5 25.4 26.3 25.4 24.4 27.1 25.4 28.3 29.4 24.7" class="st0"/></g></svg>